<?xml version="1.0" encoding="UTF-8" standalone="no"?>
<!DOCTYPE svg PUBLIC "-//W3C//DTD SVG 1.1//EN" "http://www.w3.org/Graphics/SVG/1.1/DTD/svg11.dtd">
<svg width="100%" height="100%" viewBox="0 0 223 208" version="1.1" xmlns="http://www.w3.org/2000/svg" xmlns:xlink="http://www.w3.org/1999/xlink" xml:space="preserve" xmlns:serif="http://www.serif.com/" style="fill-rule:evenodd;clip-rule:evenodd;stroke-linejoin:round;stroke-miterlimit:2;">
    <g id="Layer_1" transform="matrix(1.24065,0,0,1.24065,-26.8203,-28.5955)">
        <g>
            <circle cx="111.5" cy="36" r="12" style="fill:white;"/>
            <path d="M53.8,147.3L53.8,149.4C70.8,139.6 90.5,134 111.5,134C132.5,134 152.3,139.6 169.3,149.5L169.3,147.4C153,135.7 133.1,128.8 111.5,128.8C89.9,128.8 70.1,135.7 53.8,147.3Z" style="fill:white;fill-rule:nonzero;"/>
            <path d="M57,100.1C57,90.7 59.6,81.8 64.2,75.1C69,68.3 75.4,64.5 82.2,64.4L83.9,64.4C84.3,63.8 84.7,63.3 85.1,62.7C86.1,61.3 87.2,60 88.3,58.8C80.2,56.8 72.2,57.6 65.7,61.7C53.5,69.4 50.4,86.1 56.9,102.4L56.9,100L57,100.1Z" style="fill:white;fill-rule:nonzero;"/>
            <path d="M74.1,54.6C78.6,54.6 82.3,50.9 82.3,46.4C82.3,41.9 78.6,38.2 74.1,38.2C69.6,38.2 65.9,41.9 65.9,46.4C65.9,50.9 69.6,54.6 74.1,54.6Z" style="fill:white;fill-rule:nonzero;"/>
            <path d="M138.8,64.5L140.5,64.5C147.4,64.5 153.7,68.3 158.5,75.2C163.2,81.9 165.7,90.8 165.7,100.2C165.7,109.6 165.7,101.8 165.7,102.6C172.2,86.4 169.1,69.6 156.9,61.9C150.4,57.8 142.4,57 134.3,59C135.4,60.2 136.5,61.5 137.5,62.9C137.9,63.5 138.3,64 138.7,64.6L138.8,64.5Z" style="fill:white;fill-rule:nonzero;"/>
            <path d="M148.8,54.6C153.3,54.6 157,50.9 157,46.4C157,41.9 153.3,38.2 148.8,38.2C144.3,38.2 140.6,41.9 140.6,46.4C140.6,50.9 144.3,54.6 148.8,54.6Z" style="fill:white;fill-rule:nonzero;"/>
            <path d="M168.2,134.4C157.7,123.3 161.8,112.8 162,104.3C162.3,92.8 160.3,86 157.5,80.6C158.4,88.7 155.7,98.6 149.3,107.7C148.2,109.3 146.9,110.9 145.7,112.3C144.2,111.8 142.6,111.3 141.1,110.8C142.5,106 143.2,100.7 143.2,95.2C143.2,71.3 129,51.9 111.6,51.9C94.2,51.9 80,71.3 80,95.2C80,119.1 80.7,105.9 82.1,110.8C80.5,111.3 79,111.8 77.5,112.3C76.2,110.9 75,109.3 73.9,107.7C67.5,98.6 64.8,88.7 65.7,80.6C62.8,86 60.9,92.8 61.2,104.3C61.4,112.8 65.5,123.3 55,134.4C54.7,134.7 54.3,135.1 53.9,135.4L53.9,137.9C70.2,126.7 90.2,120.1 111.7,120.1C133.2,120.1 153.1,126.7 169.5,137.9L169.5,135.4C169.1,135.1 168.8,134.7 168.4,134.4L168.2,134.4ZM92.6,108.2C91.8,104.2 91.3,99.8 91.3,95.2C91.3,75 100.3,58.6 111.5,58.6C122.7,58.6 131.7,75 131.7,95.2C131.7,115.4 131.2,104.2 130.4,108.2C124.3,107.1 118,106.5 111.5,106.5C105,106.5 98.7,107.1 92.6,108.2Z" style="fill:white;fill-rule:nonzero;"/>
        </g>
        <path d="M195.5,183.3C196.6,183.3 197.6,183.2 198.9,183L198.9,179.1C195.1,179.8 194.6,178.6 194.6,177.5L194.6,167.5L198.9,167.5L198.9,163.5L194.6,163.5L194.6,157.7L189.7,157.7L189.7,163.5L186.7,163.5L186.7,167.5L189.7,167.5L189.7,178.7C189.7,182.4 192.4,183.3 195.4,183.3L195.5,183.3ZM156.2,183.5C159.3,183.5 161,182.1 161.7,181.1L161.7,183.2L166.5,183.2L166.5,163.6L161.6,163.6L161.6,175.6C161.6,177.8 160.3,179.4 157.8,179.4C155.3,179.4 154.3,178.1 154.3,175.8L154.3,163.6L149.4,163.6L149.4,176.9C149.4,180.5 151.6,183.6 156.2,183.6L156.2,183.5ZM135.8,183.2L140.7,183.2L140.7,172.5C140.7,169.4 142.5,168.2 144.9,168.2L146.5,168.2L146.5,163.5L145.6,163.5C143.2,163.5 141.5,164.6 140.5,166.4L140.5,163.5L135.7,163.5L135.7,183.1L135.8,183.2ZM124.7,183.2L129.7,183.2L129.7,162.1L137.4,162.1L137.4,157.8L117.1,157.8L117.1,162.1L124.8,162.1L124.8,183.2L124.7,183.2ZM96.3,164.6C98.3,163.7 100.1,162.1 100.1,160C100.1,157.9 98.7,157.1 97.2,157.1C95.7,157.1 94.3,158.4 94.3,159.9C94.3,161.4 95.1,162.2 96.2,162.5L96.2,164.6L96.3,164.6ZM85,178.3C82.3,178.3 80.7,176.5 80.7,172.8C80.7,169.1 82.3,167.3 85,167.3C87.7,167.3 89.3,170.3 89.3,172.7C89.3,175.1 88.7,178.3 85,178.3ZM84.9,190.3C87.8,190.3 89.9,189.6 91.5,188.4C93.3,187.1 94.2,184.9 94.2,182.4L94.2,163.5L89.5,163.5L89.5,165.7C88.7,164.3 86.9,163.3 84.3,163.3C80.3,163.3 75.9,165.6 75.9,172.8C75.9,180 80.2,182.3 84.1,182.3C88,182.3 88.5,181.3 89.4,179.9L89.4,182.9C89.4,185.4 87.5,186.4 85.1,186.4C81.5,186.4 81.1,184.2 81.1,183.5L76.2,183.5C76.2,186.2 77.9,190.3 85,190.3L84.9,190.3ZM97.3,177L102.2,177C102.2,179 103.8,179.9 106.1,179.9C108.4,179.9 109.9,179.2 109.9,177.6C109.9,176 109.1,175.9 107.9,175.7L102.8,174.8C99.4,174.2 97.7,172.5 97.7,169.3C97.7,166.1 100.4,163.2 106.1,163.2C111.8,163.2 114.2,167.4 114.2,169.2L109.4,169.2C109.4,167.6 107.9,166.8 105.9,166.8C103.9,166.8 102.5,167.3 102.5,168.9C102.5,170.5 103.3,170.5 104.5,170.7L109.5,171.5C112.6,172 114.8,173.6 114.8,177C114.8,180.4 112.3,183.5 105.9,183.5C99.5,183.5 97.3,180.1 97.2,177L97.3,177ZM55.6,183.2L60.5,183.2L60.5,171.8C60.5,169 62.3,167.5 64.5,167.5C66.7,167.5 68,168.8 68,171.1L68,183.2L72.9,183.2L72.9,169.8C72.9,165.8 70.2,163.2 66,163.2C61.8,163.2 61.5,164.2 60.3,165.8L60.3,163.5L55.5,163.5L55.5,183.1L55.6,183.2ZM49.5,162.6C51.1,162.6 52.4,161.3 52.4,159.8C52.4,158.3 51.1,157 49.5,157C47.9,157 46.6,158.3 46.6,159.8C46.6,161.3 47.9,162.6 49.5,162.6ZM47,183.2L51.9,183.2L51.9,163.6L47,163.6L47,183.2ZM24,183.2L29,183.2L29,175.6L32,172.1L39.5,183.1L45.4,183.1L35.4,168.2L45,157.7L39.2,157.7L29,169.3L29,157.7L24,157.7L24,183.2ZM168.6,177L173.5,177C173.5,179 175.1,179.9 177.4,179.9C179.7,179.9 181.2,179.2 181.2,177.6C181.2,176 180.4,175.9 179.2,175.7L174.1,174.8C170.7,174.2 169,172.5 169,169.3C169,166.1 171.7,163.2 177.4,163.2C183.1,163.2 185.5,167.4 185.5,169.2L180.7,169.2C180.7,167.6 179.2,166.8 177.2,166.8C175.2,166.8 173.8,167.3 173.8,168.9C173.8,170.5 174.6,170.5 175.8,170.7L180.8,171.5C183.9,172 186.1,173.6 186.1,177C186.1,180.4 183.6,183.5 177.2,183.5C170.8,183.5 168.6,180.1 168.5,177L168.6,177Z" style="fill:white;fill-rule:nonzero;"/>
    </g>
</svg>
