<?xml version="1.0" encoding="UTF-8" standalone="no"?>
<!DOCTYPE svg PUBLIC "-//W3C//DTD SVG 1.1//EN" "http://www.w3.org/Graphics/SVG/1.1/DTD/svg11.dtd">
<svg width="100%" height="100%" viewBox="0 0 1182 1182" version="1.1" xmlns="http://www.w3.org/2000/svg" xmlns:xlink="http://www.w3.org/1999/xlink" xml:space="preserve" xmlns:serif="http://www.serif.com/" style="fill-rule:evenodd;clip-rule:evenodd;stroke-linejoin:round;stroke-miterlimit:2;">
    <g id="Layer-1" serif:id="Layer 1" transform="matrix(4.16667,0,0,4.16667,0,0)">
        <g transform="matrix(1,0,0,1,141.73,11.3361)">
            <path d="M0,260.788C-72.015,260.788 -130.394,202.408 -130.394,130.394C-130.394,58.379 -72.015,0 0,0C72.014,0 130.394,58.379 130.394,130.394C130.394,202.408 72.014,260.788 0,260.788M0,-11.338C-78.276,-11.338 -141.732,52.117 -141.732,130.394C-141.732,208.671 -78.276,272.126 0,272.126C78.277,272.126 141.732,208.671 141.732,130.394C141.732,52.117 78.277,-11.338 0,-11.338" style="fill:white;fill-rule:nonzero;"/>
        </g>
        <g transform="matrix(1,0,0,1,224.439,165.287)">
            <path d="M0,-36.126L4.398,-41.915L-9.017,-41.915L-12.396,-37.536L-1.093,-37.547L0,-36.126ZM-150.496,-14.332L-133.63,6.502L-119.746,6.502L-141.016,-21.168L-129.884,-36.044L-142.782,-36.044L-150.475,-27.229L-150.475,-41.983L-161.268,-41.983L-161.296,-7.72L-150.496,-7.72L-150.496,-14.332ZM-44.605,-24.727C-44.605,-29.289 -48.304,-32.986 -52.866,-32.986C-57.429,-32.986 -61.123,-29.289 -61.123,-24.727C-61.123,-20.165 -57.429,-16.47 -52.866,-16.47C-48.304,-16.47 -44.605,-20.165 -44.605,-24.727M-15.11,-17.828L-22.873,-7.54L-43.908,-7.54L-43.901,-9.118C-46.546,-7.612 -49.604,-6.611 -52.866,-6.611C-62.872,-6.611 -70.979,-14.722 -70.979,-24.727C-70.979,-34.728 -62.872,-42.838 -52.866,-42.838C-49.592,-42.838 -46.56,-41.97 -43.908,-40.451L-43.908,-41.912L-33.555,-41.912L-33.555,-11.323L-21.81,-26.585L-33.555,-41.912L-20.351,-41.912L-17.029,-37.534L-18.756,-37.534L-5.821,-20.744L-11.625,-13.346L-15.11,-17.828ZM-17.27,-3.373L-3.799,-3.373L2.971,-12.598L17.831,6.712L30.973,6.712L9.471,-21.226L20.949,-36.223L7.943,-36.223L2.971,-29.787L-2.008,-36.223L-15.814,-36.223L-4,-20.76L-17.27,-3.373ZM-82.98,-28.046L-82.993,-7.542L-72.672,-7.542L-72.672,-28.046C-72.672,-36.002 -80.052,-42.451 -88.002,-42.451C-91.98,-42.451 -95.584,-40.838 -98.193,-38.232C-100.798,-40.838 -104.467,-42.451 -108.441,-42.451C-116.396,-42.451 -123.779,-36.002 -123.779,-28.046L-123.779,-7.542L-113.484,-7.542L-113.462,-28.046C-113.462,-30.817 -111.213,-33.067 -108.441,-33.067C-105.669,-33.067 -103.425,-30.817 -103.425,-28.046L-103.425,-7.542L-93.048,-7.542L-93.024,-28.046C-93.024,-30.817 -90.776,-33.067 -88.002,-33.067C-85.234,-33.067 -82.98,-30.817 -82.98,-28.046M-165.602,-41.983L-196.392,-41.983L-196.392,-32.56L-186.172,-32.56L-186.172,-7.696L-175.821,-7.696L-175.821,-32.56L-165.602,-32.56L-165.602,-41.983ZM-136.667,-20.658C-136.667,-17.55 -134.146,-15.028 -131.035,-15.028C-127.927,-15.028 -125.406,-17.55 -125.406,-20.658C-125.406,-23.768 -127.927,-26.29 -131.035,-26.29C-134.146,-26.29 -136.667,-23.768 -136.667,-20.658M-168.46,-26.29C-165.349,-26.29 -162.83,-23.768 -162.83,-20.658C-162.83,-17.55 -165.349,-15.028 -168.46,-15.028C-171.57,-15.028 -174.091,-17.55 -174.091,-20.658C-174.091,-23.768 -171.57,-26.29 -168.46,-26.29" style="fill:white;fill-rule:nonzero;"/>
        </g>
    </g>
</svg>
